<svg width="30" height="15" viewBox="0 0 30 15" fill="none" xmlns="http://www.w3.org/2000/svg">
<path d="M1 6.55C0.47533 6.55 0.05 6.97533 0.05 7.5C0.05 8.02467 0.47533 8.45 1 8.45V6.55ZM29.6718 8.17175C30.0427 7.80075 30.0427 7.19925 29.6718 6.82825L23.626 0.782485C23.255 0.411488 22.6535 0.411488 22.2825 0.782485C21.9115 1.15348 21.9115 1.75499 22.2825 2.12599L27.6565 7.5L22.2825 12.874C21.9115 13.245 21.9115 13.8465 22.2825 14.2175C22.6535 14.5885 23.255 14.5885 23.626 14.2175L29.6718 8.17175ZM1 8.45H29V6.55H1V8.45Z" fill="white"/>
</svg>
